<svg width="33" height="33" viewBox="0 0 33 33" fill="none" xmlns="http://www.w3.org/2000/svg">
<path d="M1.375 27.5V22C1.375 21.2208 1.64427 20.5677 2.18281 20.0406C2.72135 19.5135 3.36875 19.25 4.125 19.25H8.62813C9.08646 19.25 9.52188 19.3646 9.93437 19.5938C10.3469 19.8229 10.6792 20.1323 10.9313 20.5219C11.5958 21.4156 12.4151 22.1146 13.3891 22.6187C14.363 23.1229 15.4 23.375 16.5 23.375C17.6229 23.375 18.6714 23.1229 19.6453 22.6187C20.6193 22.1146 21.4271 21.4156 22.0688 20.5219C22.3667 20.1323 22.7161 19.8229 23.1172 19.5938C23.5182 19.3646 23.9365 19.25 24.3719 19.25H28.875C29.6542 19.25 30.3073 19.5135 30.8344 20.0406C31.3615 20.5677 31.625 21.2208 31.625 22V27.5H22V24.3719C21.1979 24.9448 20.3328 25.3802 19.4047 25.6781C18.4766 25.976 17.5083 26.125 16.5 26.125C15.5146 26.125 14.5521 25.9703 13.6125 25.6609C12.6729 25.3516 11.8021 24.9104 11 24.3375V27.5H1.375ZM16.5 22C15.6292 22 14.8042 21.7995 14.025 21.3984C13.2458 20.9974 12.5927 20.4417 12.0656 19.7313C11.676 19.1583 11.1891 18.7057 10.6047 18.3734C10.0203 18.0411 9.38438 17.875 8.69688 17.875C9.20104 17.0271 10.2667 16.3568 11.8938 15.8641C13.5208 15.3714 15.0563 15.125 16.5 15.125C17.9438 15.125 19.4792 15.3714 21.1063 15.8641C22.7333 16.3568 23.799 17.0271 24.3031 17.875C23.6385 17.875 23.0083 18.0411 22.4125 18.3734C21.8167 18.7057 21.324 19.1583 20.9344 19.7313C20.4302 20.4646 19.7885 21.026 19.0094 21.4156C18.2302 21.8052 17.3938 22 16.5 22ZM5.5 17.875C4.35417 17.875 3.38021 17.474 2.57812 16.6719C1.77604 15.8698 1.375 14.8958 1.375 13.75C1.375 12.5813 1.77604 11.6016 2.57812 10.8109C3.38021 10.0203 4.35417 9.625 5.5 9.625C6.66875 9.625 7.64844 10.0203 8.43906 10.8109C9.22969 11.6016 9.625 12.5813 9.625 13.75C9.625 14.8958 9.22969 15.8698 8.43906 16.6719C7.64844 17.474 6.66875 17.875 5.5 17.875ZM27.5 17.875C26.3542 17.875 25.3802 17.474 24.5781 16.6719C23.776 15.8698 23.375 14.8958 23.375 13.75C23.375 12.5813 23.776 11.6016 24.5781 10.8109C25.3802 10.0203 26.3542 9.625 27.5 9.625C28.6688 9.625 29.6484 10.0203 30.4391 10.8109C31.2297 11.6016 31.625 12.5813 31.625 13.75C31.625 14.8958 31.2297 15.8698 30.4391 16.6719C29.6484 17.474 28.6688 17.875 27.5 17.875ZM16.5 13.75C15.3542 13.75 14.3802 13.349 13.5781 12.5469C12.776 11.7448 12.375 10.7708 12.375 9.625C12.375 8.45625 12.776 7.47656 13.5781 6.68594C14.3802 5.89531 15.3542 5.5 16.5 5.5C17.6688 5.5 18.6484 5.89531 19.4391 6.68594C20.2297 7.47656 20.625 8.45625 20.625 9.625C20.625 10.7708 20.2297 11.7448 19.4391 12.5469C18.6484 13.349 17.6688 13.75 16.5 13.75Z" fill="#E0760C"/>
</svg>
